<mxfile host="app.diagrams.net" modified="2024-04-06T23:13:42.527Z" agent="Mozilla/5.0 (Macintosh; Intel Mac OS X 10_15_7) AppleWebKit/537.36 (KHTML, like Gecko) Chrome/123.0.0.0 Safari/537.36" version="24.2.2" etag="JNjmLXks3E7MWM8f1pN9" type="github">
  <diagram name="Page-1" id="au8R7qGuQvYielwcS9bg">
    <mxGraphModel>
      <root>
        <mxCell id="0" />
        <mxCell id="1" parent="0" />
      </root>
    </mxGraphModel>
  </diagram>
</mxfile>
